<svg version="1" xmlns="http://www.w3.org/2000/svg" width="666.667" height="666.667" viewBox="0 0 500.000000 500.000000"><path d="M124.2 109.9c-.5.3-.9 45.6-.9 100.6-.1 97.1-.2 100.3-2.2 109.8-4.7 22.1-14.9 33-34.1 36.2-4.4.8-16.5.8-20.5 0-1.6-.3-6.2-.8-10.1-1.2-12.8-1-13.9.8-16 27.2-1.3 15.4-2.1 13.7 7.6 15.7 15 3.1 36.5 4.2 50.3 2.5 35.2-4.3 60.3-24.4 71.6-57.5 2.6-7.6 4.4-16 6.6-30.7.4-3 .9-167.4.6-198.6l-.1-4.5h-26c-14.3 0-26.4.2-26.8.5zM237.8 109.9c-.4 1.7-.3 288.1.2 288.2 2.4.7 52.2.3 52.6-.3.3-.5.5-25.8.5-56.2-.1-43.7.1-55.5 1.1-55.8.7-.2 7.3-.3 14.7-.2 14.7.2 20.2 1.6 24 6 1.2 1.4 6.5 9.2 11.8 17.2 5.3 8.1 14.8 22.6 21.1 32.2 6.4 9.6 16.1 24.5 21.7 33 5.6 8.5 11.5 16.8 13.1 18.3 5.7 5.7 7.4 6 37.1 6.2l27.2.2-1.1-2.1c-.6-1.2-2.3-3.7-3.7-5.6-1.4-1.9-3-4.3-3.6-5.2-.5-.9-6.1-9.3-12.4-18.5-6.3-9.2-15.6-22.9-20.6-30.3-35.4-52.2-37.2-54.6-44.8-59.5-2.5-1.6-2.6-1.8-1-3.1 1-.7 2.4-1.4 3-1.4 2.4 0 14.8-6.2 21.3-10.5 19-12.7 31-30.9 35.6-54 1.9-10 1.1-29.8-1.6-39.5-9.5-33.9-36.9-52.8-85-58.6-5.5-.7-111-1.1-111.2-.5zm105.7 42.5c10.1 2.1 13.6 3.2 18.5 5.6 14.9 7.5 22.3 20.8 22.1 39.5-.2 19.7-9 34.4-25.5 42.5-11.4 5.5-16 6.2-42.8 6.7l-24.8.5v-96.4l24.8.5c13.6.3 26.1.8 27.7 1.1z"/></svg>