<?xml version="1.0" standalone="no"?>
<!DOCTYPE svg PUBLIC "-//W3C//DTD SVG 20010904//EN"
 "http://www.w3.org/TR/2001/REC-SVG-20010904/DTD/svg10.dtd">
<svg version="1.0" xmlns="http://www.w3.org/2000/svg"
 width="2000.000000pt" height="2000.000000pt" viewBox="0 0 2000.000000 2000.000000"
 preserveAspectRatio="xMidYMid meet">
<metadata>
Created by potrace 1.14, written by Peter Selinger 2001-2017
</metadata>
<g transform="translate(0.000000,2000.000000) scale(0.100000,-0.100000)"
fill="#000000" stroke="none">
<path d="M5594 11908 c-1 -2378 -4 -4375 -7 -4438 -15 -249 -53 -468 -114
-650 -33 -100 -101 -259 -124 -292 -11 -14 -19 -30 -19 -35 -1 -15 -124 -181
-178 -237 -259 -273 -625 -408 -1087 -401 -66 2 -145 6 -175 9 -30 4 -68 9
-85 11 -77 9 -251 54 -340 88 -75 29 -244 123 -313 174 -328 242 -533 664
-558 1145 -3 56 -7 104 -9 107 -2 4 -583 6 -1292 6 l-1288 0 1 -140 c1 -133
10 -317 19 -360 2 -11 6 -50 9 -87 4 -36 8 -72 10 -80 3 -7 7 -31 10 -53 10
-76 17 -120 23 -145 8 -32 8 -34 22 -105 24 -119 110 -410 146 -490 7 -16 25
-61 40 -100 32 -82 107 -233 172 -349 277 -491 715 -915 1238 -1196 44 -24 87
-47 95 -51 12 -7 102 -49 235 -109 125 -58 499 -181 622 -206 12 -2 69 -15
125 -28 57 -13 144 -31 195 -40 92 -17 103 -18 198 -31 28 -3 57 -8 65 -10 8
-2 51 -7 95 -11 44 -3 88 -8 98 -10 134 -25 958 -24 1082 1 11 3 54 7 95 10
41 3 100 10 130 15 30 5 78 12 105 15 28 4 82 13 120 20 39 8 85 17 102 20 48
8 281 63 333 79 25 8 79 24 120 36 340 101 724 278 1015 468 87 57 268 187
302 217 6 5 33 28 59 50 465 385 830 916 1043 1516 37 106 104 329 115 382 3
12 16 76 30 142 13 66 27 140 31 165 3 25 8 52 10 60 2 8 6 46 10 83 3 37 8
77 10 88 6 28 13 122 21 269 7 127 13 8765 6 8788 -3 9 -269 12 -1286 12
l-1282 0 0 -4322z"/>
<path d="M10309 16228 c-3 -8 -4 -12256 -1 -12273 3 -20 10 -20 1260 -18 691
1 1275 2 1297 2 l40 1 0 2175 c0 1443 3 2175 10 2176 33 4 1878 3 1885 -1 4
-3 28 -43 52 -90 25 -47 59 -110 75 -140 17 -30 52 -95 78 -145 26 -49 62
-117 80 -150 64 -118 119 -221 150 -280 42 -81 120 -226 160 -300 18 -33 52
-96 75 -140 24 -44 69 -129 101 -188 33 -59 59 -109 59 -111 0 -2 19 -39 43
-82 24 -44 67 -124 97 -179 29 -55 65 -122 80 -150 15 -27 51 -95 80 -150 57
-108 62 -117 232 -435 64 -118 135 -251 158 -295 23 -44 55 -102 70 -130 15
-27 51 -95 80 -150 29 -55 65 -122 80 -150 15 -27 53 -99 85 -160 32 -60 152
-285 267 -499 114 -213 208 -392 208 -396 0 -32 14 -33 1460 -34 787 0 1430 1
1430 4 0 4 -4 10 -9 15 -5 6 -32 55 -61 110 -29 55 -61 114 -71 132 -10 18
-35 63 -55 100 -20 37 -45 82 -54 98 -10 17 -35 62 -55 100 -65 121 -162 299
-182 335 -42 74 -54 97 -408 745 -147 270 -280 513 -295 540 -71 129 -326 596
-353 645 -36 66 -437 802 -480 880 -17 30 -40 73 -52 95 -22 39 -237 433 -298
545 -16 30 -37 69 -47 85 -10 17 -38 68 -63 115 -25 47 -64 118 -86 159 -23
41 -40 75 -38 77 1 2 56 28 122 59 66 30 128 60 139 66 19 11 48 27 146 81 90
50 299 187 390 257 241 183 435 376 655 653 44 55 212 320 261 413 75 140 204
430 219 490 1 6 5 17 8 25 23 55 115 392 131 477 30 159 37 204 42 239 2 23 7
53 10 65 5 26 11 82 19 174 3 33 7 83 10 110 19 166 18 609 0 805 -3 30 -7 84
-11 120 -3 36 -12 108 -20 160 -8 52 -17 109 -19 125 -22 144 -84 406 -134
565 -143 456 -363 867 -655 1220 -68 82 -298 318 -381 391 -61 53 -235 188
-313 242 -225 156 -585 345 -822 431 -41 15 -84 32 -95 37 -77 34 -415 131
-590 169 -126 27 -133 29 -170 35 -16 3 -43 7 -60 10 -28 5 -120 21 -175 30
-14 2 -48 7 -76 10 -28 3 -60 7 -72 10 -12 2 -56 6 -99 10 -43 3 -97 8 -120
11 -24 3 -69 8 -100 11 -59 5 -5322 16 -5324 11z m4656 -2132 c39 -4 93 -9
120 -13 28 -3 66 -7 85 -8 32 -2 93 -11 145 -21 11 -2 34 -6 50 -9 17 -3 41
-8 55 -10 14 -3 34 -7 45 -9 11 -2 63 -15 115 -29 928 -248 1361 -914 1296
-1990 -3 -54 -8 -102 -10 -105 -2 -4 -7 -36 -10 -71 -4 -35 -9 -67 -11 -71 -2
-4 -7 -22 -10 -41 -13 -75 -46 -199 -65 -244 -4 -11 -14 -36 -21 -55 -22 -60
-90 -192 -136 -265 -98 -152 -248 -303 -398 -401 -33 -21 -69 -45 -80 -52 -60
-39 -260 -127 -367 -162 -149 -49 -323 -91 -438 -106 -25 -3 -52 -7 -60 -9
-18 -5 -66 -11 -175 -21 -44 -3 -96 -8 -115 -11 -19 -2 -493 -5 -1052 -6 -710
-2 -1018 0 -1019 7 -3 27 -5 3692 -2 3702 4 11 1936 12 2058 0z"/>
</g>
</svg>
