<svg version="1" xmlns="http://www.w3.org/2000/svg" width="666.667" height="666.667" viewBox="0 0 500.000000 500.000000"><path d="M149 212.7c0 43.2-.4 79.3-1 85.6-2.2 22.6-10.3 33.5-27.7 36.7-6.1 1.2-9.1 1.1-24.9-.6-5.4-.6-6.3-.4-8.7 1.7-2.6 2.3-2.8 3.2-3.8 15.6-.7 7.2-.9 13.8-.6 14.6.4 1 4.2 2 12.1 3.2 15.3 2.3 35.7 1.7 46.6-1.5 25.6-7.3 41.5-25.7 48.2-55.7 2.2-9.6 2.2-11.6 2.6-92.1l.3-82.2H149v74.7zM240 253.5V369h43v-91h8.9c10.7 0 18.8 1.4 21.4 3.8 1.1.9 7.5 10 14.2 20.2 6.7 10.2 18.2 27.8 25.7 39.1 7.4 11.3 14.7 21.7 16.3 23.1 1.5 1.5 4.7 3.1 7.1 3.7 3.9 1 43.4 1.6 43.4.7 0-.2-5.1-8-11.4-17.2-6.3-9.3-19.5-28.8-29.3-43.3-17.5-25.9-21.8-31.5-27.8-35.9l-3-2.2 2.5-.7c1.4-.3 6.6-2.7 11.5-5.2 12.4-6.3 24.6-18.3 29.8-29.1 5-10.4 6.9-19.5 6.9-31.5-.1-19.1-5.1-31.7-17.1-43.5-8.6-8.5-17.3-13.3-31.2-17.4-13.7-3.9-23.6-4.6-68.6-4.6H240v115.5zm87.3-81.1c9.9 1.9 16.4 5.4 22.1 11.7 5.6 6.2 7.8 12.9 7.8 23.5-.1 18-8.4 30.2-24.8 36.3-7.9 3-16.7 4.1-34.1 4.1H283v-77h18.4c11.8 0 21.1.5 25.9 1.4z"/></svg>