<?xml version="1.0" standalone="no"?>
<!DOCTYPE svg PUBLIC "-//W3C//DTD SVG 20010904//EN"
 "http://www.w3.org/TR/2001/REC-SVG-20010904/DTD/svg10.dtd">
<svg version="1.0" xmlns="http://www.w3.org/2000/svg"
 width="2000.000000pt" height="2000.000000pt" viewBox="0 0 2000.000000 2000.000000"
 preserveAspectRatio="xMidYMid meet">
<metadata>
Created by potrace 1.14, written by Peter Selinger 2001-2017
</metadata>
<g transform="translate(0.000000,2000.000000) scale(0.100000,-0.100000)"
fill="#000000" stroke="none">
<path d="M6819 14473 c0 -16 -1 -1450 -3 -3188 -1 -1738 -6 -3191 -11 -3230
-6 -58 -43 -247 -59 -305 -12 -44 -62 -171 -84 -215 -70 -141 -184 -277 -296
-354 -93 -64 -253 -133 -343 -147 -21 -3 -40 -7 -43 -9 -3 -2 -44 -7 -90 -11
-408 -36 -730 66 -959 305 -117 123 -225 344 -255 521 -3 19 -10 62 -16 95 -5
33 -10 88 -10 122 l0 61 -935 0 c-695 0 -935 -3 -936 -12 -2 -31 2 -187 6
-231 10 -117 17 -187 20 -203 1 -9 6 -39 9 -67 24 -173 85 -401 155 -579 75
-186 163 -344 290 -515 366 -494 959 -828 1696 -955 50 -8 118 -18 150 -21 33
-3 67 -8 75 -10 93 -26 762 -26 910 -1 14 3 50 7 81 11 31 3 67 8 80 10 13 3
39 7 59 10 20 3 47 7 60 10 127 24 195 40 254 57 38 11 78 22 90 24 41 8 263
87 351 126 342 149 606 326 846 568 200 201 347 407 469 655 120 246 209 520
246 759 3 21 7 48 10 60 2 11 6 48 10 81 3 33 7 66 9 72 15 47 18 624 19 3398
l0 3130 -927 3 -927 2 -1 -27z"/>
<path d="M10220 10061 l0 -4440 938 2 937 2 2 1470 c1 809 2 1516 3 1573 l0
102 683 0 684 0 25 -47 c27 -49 55 -101 125 -233 22 -41 126 -235 230 -430
105 -195 212 -395 238 -445 26 -49 62 -117 80 -150 18 -33 70 -130 115 -215
46 -85 95 -177 110 -205 15 -27 53 -99 85 -160 32 -60 70 -132 85 -160 15 -27
49 -90 75 -140 26 -49 60 -112 75 -140 15 -27 49 -90 75 -140 46 -87 99 -187
155 -290 15 -27 68 -127 119 -222 l92 -172 1035 0 1035 0 -49 92 c-54 100
-113 208 -149 272 -12 22 -38 72 -59 110 -20 39 -40 75 -44 80 -4 6 -29 51
-55 100 -26 50 -96 178 -155 285 -59 107 -124 227 -145 265 -21 39 -45 84 -55
100 -10 17 -34 62 -55 100 -34 64 -116 215 -185 340 -45 81 -378 691 -405 743
-15 26 -30 54 -35 62 -12 18 -158 287 -213 390 -22 41 -59 109 -82 150 -23 41
-58 104 -77 140 -19 36 -54 100 -78 143 -23 43 -41 79 -39 81 2 2 38 18 79 37
41 18 107 52 145 74 39 23 78 44 88 48 34 13 193 122 299 204 115 90 268 237
349 336 28 34 58 71 68 82 74 82 253 394 315 550 15 39 34 84 41 101 22 51 89
285 101 354 3 14 9 41 14 60 5 19 12 53 15 75 4 22 8 50 10 61 2 12 6 48 10
80 4 33 9 70 11 84 23 142 22 652 -1 782 -3 13 -7 44 -9 71 -3 26 -10 75 -16
110 -89 512 -262 909 -555 1277 -76 96 -258 278 -355 357 -135 109 -360 254
-485 313 -175 82 -225 103 -337 144 -232 84 -531 156 -748 181 -30 3 -62 8
-70 10 -8 2 -51 7 -95 11 -44 4 -93 9 -110 12 -16 3 -897 7 -1957 9 l-1928 4
0 -4440z m3395 2895 c175 -18 242 -28 360 -56 28 -6 57 -13 65 -15 41 -9 183
-61 248 -91 68 -31 190 -100 202 -114 3 -3 25 -21 50 -40 224 -174 364 -439
415 -785 14 -92 14 -425 0 -515 -65 -422 -262 -704 -610 -875 -116 -57 -222
-95 -337 -121 -10 -2 -28 -6 -40 -9 -28 -6 -192 -33 -239 -39 -134 -17 -1609
-30 -1625 -14 -7 8 -7 2664 0 2676 6 10 1417 8 1511 -2z"/>
</g>
</svg>
